<?xml version="1.0" encoding="UTF-8" standalone="no"?>
<svg
   viewBox="0 0 491.3 384"
   version="1.1"
   id="svg80"
   xmlns="http://www.w3.org/2000/svg"
   xmlns:svg="http://www.w3.org/2000/svg">
  <defs
     id="defs7">
    <style
       id="style2">.cls-1,.cls-5,.cls-7,.cls-9{fill:none;}.cls-2{fill:#f8ab5d;}.cls-3{fill:#ffe779;}.cls-4{clip-path:url(#clip-path);}.cls-5{stroke:#f8ab5d;}.cls-5,.cls-7,.cls-9{stroke-linecap:round;stroke-linejoin:round;stroke-width:2.6px;}.cls-6{fill:#22272e;}.cls-7{stroke:#6dafa7;}.cls-8{fill:#6dafa7;}.cls-9{stroke:#22272e;}.cls-10{fill:#63737a;}</style>
    <clipPath
       id="clip-path">
      <path
         class="cls-1"
         d="M235.05,382.12l-129.13-7.94a16,16,0,0,1-14.86-18.9l49.2-275.71a21.59,21.59,0,0,1,19-17.6L289,49.42a16.16,16.16,0,0,1,17.46,18.76l-49,296.05A21.39,21.39,0,0,1,235.05,382.12Z"
         id="path4" />
    </clipPath>
  </defs>
  <g
     id="Isolation_Mode"
     data-name="Isolation Mode">
    <path
       class="cls-2"
       d="M242.12,383,113,375.05a16,16,0,0,1-14.86-18.9l49.2-275.71a21.59,21.59,0,0,1,19-17.6l129.7-12.55A16.15,16.15,0,0,1,313.53,69l-49,296A21.27,21.27,0,0,1,242.12,383Z"
       id="path9" />
    <path
       class="cls-3"
       d="M235.05,382.12l-129.13-7.94a16,16,0,0,1-14.86-18.9l49.2-275.71a21.59,21.59,0,0,1,19-17.6L289,49.42a16.16,16.16,0,0,1,17.46,18.76l-49,296.05A21.39,21.39,0,0,1,235.05,382.12Z"
       id="path11" />
    <g
       class="cls-4"
       clip-path="url(#clip-path)"
       id="g15">
      <path
         class="cls-2"
         d="M365.18,226.3l-198.81,3.46a8.21,8.21,0,0,1-8.22-9.66l14.57-83a10.59,10.59,0,0,1,9.52-8.66l196.21-13.13a10.44,10.44,0,0,1,11,12.12L375,217.64A9.73,9.73,0,0,1,365.18,226.3Z"
         id="path13" />
    </g>
    <g
       class="cls-4"
       clip-path="url(#clip-path)"
       id="g19">
      <path
         class="cls-2"
         d="M343.25,360l-198.81-8.65a8.35,8.35,0,0,1-7.79-9.67l15-85a10.5,10.5,0,0,1,10.24-8.65l196.5-1.59a10.49,10.49,0,0,1,10.39,12.12l-14.72,92.77A10.47,10.47,0,0,1,343.25,360Z"
         id="path17" />
    </g>
    <line
       class="cls-5"
       x1="137.23"
       y1="96.17"
       x2="304.01"
       y2="82.89"
       id="line21" />
    <path
       class="cls-6"
       d="M222.06,76.11l-14.28,1.3c-1.3.15-2-.86-1.88-2.31h0a3.39,3.39,0,0,1,2.74-2.74l14.29-1.3c1.3-.14,2.16.87,1.87,2.31h0A3.54,3.54,0,0,1,222.06,76.11Z"
       id="path23" />
    <path
       class="cls-6"
       d="M231.58,75.25h0c-1.3.14-2.16-.87-1.87-2.31h0a3.37,3.37,0,0,1,2.74-2.74h0c1.3-.15,2.16.86,1.87,2.31h0A3.06,3.06,0,0,1,231.58,75.25Z"
       id="path25" />
    <path
       class="cls-8"
       d="M144.3,147.38l-45.16,2.46-6.64,4.32A2.07,2.07,0,0,1,89.33,152l7.07-39.24a7,7,0,0,1,6.35-5.77l47-3.61a4.69,4.69,0,0,1,5.05,5.48l-6.06,34.34A4.88,4.88,0,0,1,144.3,147.38Z"
       id="path31" />
    <line
       class="cls-9"
       x1="105.2"
       y1="118.53"
       x2="143.29"
       y2="115.79"
       id="line33" />
    <line
       class="cls-9"
       x1="103.47"
       y1="128.19"
       x2="141.56"
       y2="125.6"
       id="line35" />
    <line
       class="cls-9"
       x1="101.74"
       y1="137.72"
       x2="121.65"
       y2="136.56"
       id="line37" />
    <path
       class="cls-6"
       d="M354.5,217.5,155.7,221a8.22,8.22,0,0,1-8.23-9.66l14.57-83a10.59,10.59,0,0,1,9.53-8.66l196.21-13.13a10.44,10.44,0,0,1,11,12.12l-14.43,90.17A9.83,9.83,0,0,1,354.5,217.5Z"
       id="path39" />
    <path
       class="cls-8"
       d="m 262.79946,174.09771 -89.30241,3.35098 c -1.65569,0.0621 -4.35277,-0.54891 -4.7516,-2.02121 -0.48364,-1.7854 -0.62899,-4.51449 -0.34682,-7.52133 0.15476,-1.64908 0.6287,-4.29607 0.89978,-5.9306 l 2.57291,-15.51391 c 0.27108,-1.63453 0.70775,-4.28668 1.08716,-5.89925 0.80564,-3.42413 1.87648,-6.19885 3.0176,-7.90269 0.89616,-1.33809 3.59593,-1.92623 5.25002,-2.0218 l 89.68118,-5.1818 c 1.65409,-0.0956 4.34988,0.48835 4.74871,1.96065 0.48364,1.7854 0.62899,4.51449 0.34682,7.52133 -0.15476,1.64908 -0.63198,4.29552 -0.90709,5.92937 l -2.94122,17.46713 c -0.27511,1.63385 -0.69666,4.28841 -1.05646,5.90545 -0.77707,3.49239 -1.84724,6.3238 -2.99025,8.01712 -0.89151,1.32072 -3.65264,1.77843 -5.30833,1.84056 z"
       id="path45"
       style="stroke-width:1.84872" />
    <path
       class="cls-6"
       d="M332.43,351.24l-198.66-8.8a8.33,8.33,0,0,1-7.79-9.67l15-85a10.51,10.51,0,0,1,10.24-8.66l196.5-1.59a10.48,10.48,0,0,1,10.39,12.12L343.4,342.44A10.62,10.62,0,0,1,332.43,351.24Z"
       id="path57" />
    <path
       class="cls-3"
       d="M186,277.52c-1,6.06-6.2,11-11.68,10.82s-8.8-5-7.79-11.11,6.2-10.82,11.54-10.82S187.15,271.46,186,277.52Z"
       id="path59" />
    <path
       class="cls-3"
       d="M181.81,316.47l-23.66-.72a5.22,5.22,0,0,1-4.91-5.92l.58-3c1.88-11,11.11-19.63,20.78-19.48h0c9.66.14,16.15,9.23,14.13,20.34l-.57,3.61A6.27,6.27,0,0,1,181.81,316.47Z"
       id="path61" />
    <path
       class="cls-8"
       d="M311.66,286.46l-94.22-1.3a3.11,3.11,0,0,1-3-3.6l1.15-6.64a4.64,4.64,0,0,1,4.62-3.89l94.35.72a3.11,3.11,0,0,1,3,3.6l-1.15,7.22A5,5,0,0,1,311.66,286.46Z"
       id="path63" />
    <polygon
       class="cls-3"
       points="216.58 302.62 218.02 307.24 222.49 308.25 218.6 312 218.46 317.19 214.56 314.74 209.94 316.9 211.38 311.71 208.93 307.96 213.55 307.09 216.58 302.62"
       id="polygon65" />
    <polygon
       class="cls-3"
       points="238.36 303.05 239.81 307.67 244.42 308.82 240.38 312.58 240.24 317.77 236.2 315.46 231.58 317.63 233.03 312.43 230.43 308.39 235.34 307.67 238.36 303.05"
       id="polygon67" />
    <polygon
       class="cls-3"
       points="260.58 303.63 262.02 308.25 266.79 309.4 262.75 313.15 262.46 318.49 258.42 316.04 253.66 318.2 255.24 313.01 252.5 308.97 257.41 308.25 260.58 303.63"
       id="polygon69" />
    <polygon
       class="cls-10"
       points="283.23 304.06 284.82 308.82 289.58 309.98 285.4 313.88 285.25 319.21 281.07 316.76 276.16 318.92 277.75 313.59 275.01 309.55 280.06 308.68 283.23 304.06"
       id="polygon71"
       style="fill:#ffe779;fill-opacity:1" />
    <polygon
       class="cls-10"
       points="306.32 304.64 308.05 309.4 312.81 310.56 308.63 314.45 308.48 319.93 304.3 317.34 299.25 319.65 300.83 314.16 297.95 310.27 303.14 309.4 306.32 304.64"
       id="polygon73"
       style="fill:#ffe779;fill-opacity:1" />
    <path
       style="fill:#6d6c67;fill-opacity:1;stroke:none;stroke-width:0.974391;stroke-opacity:1"
       id="rect1925"
       width="83.887672"
       height="10.77389"
       x="306.79568"
       y="141.68193"
       transform="matrix(0.9988785,-0.04734704,-0.14229968,0.98982362,0,0)"
       d="m 308.79568,141.68193 79.88768,0 a 2,2 45 0 1 2,2 v 6.77389 a 2,2 135 0 1 -2,2 l -79.88768,0 a 2,2 45 0 1 -2,-2 v -6.77389 a 2,2 135 0 1 2,-2 z" />
    <path
       style="fill:#6d6c67;fill-opacity:1;stroke:none;stroke-width:0.974391;stroke-opacity:1"
       id="rect1925-5"
       width="83.887672"
       height="10.77389"
       x="306.7384"
       y="160.6978"
       transform="matrix(0.9988785,-0.04734704,-0.14229968,0.98982362,0,0)"
       d="m 308.7384,160.6978 79.88768,0 a 2,2 45 0 1 2,2 v 6.77389 a 2,2 135 0 1 -2,2 l -79.88768,0 a 2,2 45 0 1 -2,-2 v -6.77389 a 2,2 135 0 1 2,-2 z" />
    <path
       style="fill:#6d6c67;fill-opacity:1;stroke:none;stroke-width:0.974391;stroke-opacity:1"
       id="rect1925-2"
       width="83.887672"
       height="10.77389"
       x="305.9415"
       y="179.37508"
       transform="matrix(0.9988785,-0.04734704,-0.14229968,0.98982362,0,0)"
       d="m 307.9415,179.37508 h 79.88767 a 2,2 45 0 1 2,2 v 6.77389 a 2,2 135 0 1 -2,2 H 307.9415 a 2,2 45 0 1 -2,-2 v -6.77389 a 2,2 135 0 1 2,-2 z" />
    <path
       style="fill:#6d6c67;fill-opacity:1;stroke:none;stroke-width:0.805976;stroke-opacity:1"
       id="rect2503"
       width="193.86615"
       height="31.029219"
       x="199.96434"
       y="193.02422"
       transform="matrix(0.99958798,-0.02870305,-0.18022712,0.98362502,0,0)"
       d="m 201.96434,193.02422 h 189.86615 a 2,2 45 0 1 2,2 v 27.02921 a 2,2 135 0 1 -2,2 H 201.96434 a 2,2 45 0 1 -2,-2 v -27.02921 a 2,2 135 0 1 2,-2 z" />
  </g>
</svg>
