<?xml version="1.0" encoding="UTF-8" standalone="no"?>
<svg
   viewBox="0 0 491.3 384"
   version="1.1"
   id="svg1370"
   xmlns="http://www.w3.org/2000/svg"
   xmlns:svg="http://www.w3.org/2000/svg">
  <defs
     id="defs1273">
    <style
       id="style1271">.cls-1{fill:#63737a;}.cls-2{fill:#22272e;}.cls-3{fill:#6dafa7;}.cls-4{fill:#ffe779;}.cls-5{fill:#f4c2c9;}.cls-10,.cls-6,.cls-8{fill:none;stroke-linecap:round;stroke-linejoin:round;stroke-width:3.74px;}.cls-6{stroke:#63737a;}.cls-7{fill:#282828;}.cls-8{stroke:#282828;}.cls-9{fill:#f8ab5d;}.cls-10{stroke:#6dafa7;}</style>
  </defs>
  <g
     id="Isolation_Mode"
     data-name="Isolation Mode">
    <path
       class="cls-1"
       d="M402.88,328,51.67,381.2a13.55,13.55,0,0,1-15.59-12.47l-21-316.3A14.41,14.41,0,0,1,30.47,37.05L382.3,59.5A13.58,13.58,0,0,1,395,71.76l20.16,240.86A14.67,14.67,0,0,1,402.88,328Z"
       id="path1275" />
    <path
       class="cls-2"
       d="M412.44,327.58,59.56,381A13.55,13.55,0,0,1,44,368.52L22.78,50.77A14.62,14.62,0,0,1,38.37,35.18L391.65,57.63A13.6,13.6,0,0,1,404.33,70.1L424.7,312A14.16,14.16,0,0,1,412.44,327.58Z"
       id="path1277" />
    <path
       class="cls-3"
       d="m 182.38,218.83249 -99.33,5.40853 a 5.78,5.7891309 0 0 1 -6,-5.40853 l -5.82,-84.1327 A 5.91,5.9193362 0 0 1 77,128.49 l 99.34,0.631 a 5.73,5.7390519 0 0 1 5.82,5.40853 l 5.84,78.0531 a 5.86,5.8692573 0 0 1 -5.62,6.24986 z"
       id="path1279"
       style="stroke-width:1.00079" />
    <path
       class="cls-3"
       d="m 287.47484,213.73724 -102.77092,5.06405 a 5.9802267,5.4204035 0 0 1 -6.20785,-5.06405 l -6.02161,-78.77403 a 6.1147301,5.5423157 0 0 1 5.96988,-5.81427 l 102.78127,0.59081 a 5.9284946,5.3735142 0 0 1 6.02161,5.06404 l 6.0423,73.08167 a 6.062998,5.4954264 0 0 1 -5.81468,5.85178 z"
       id="path1279-0"
       style="fill:#6dafa7;stroke-width:0.985024" />
    <path
       class="cls-5"
       d="m 384.69325,206.11039 -69.86654,3.56891 a 8.2813525,5.7621749 85.843182 0 1 -6.28943,-7.7398 l -5.88034,-62.85006 a 8.4679341,5.8919986 85.843182 0 1 5.48607,-8.92944 l 70.02198,0.58765 a 8.6114584,5.991863 85.843182 0 1 6.10997,7.75414 l 5.51383,58.66483 a 8.1521806,5.672297 85.843182 0 1 -5.09554,8.94377 z"
       id="path1283"
       style="fill:#7c7c7c;fill-opacity:1;stroke-width:1.1972" />
    <path
       class="cls-6"
       d="M188.62,300.15,89.28,311a5.76,5.76,0,0,1-6.44-5.41L79.1,251.31a6,6,0,0,1,5.4-6.23l99.55-6.65a5.82,5.82,0,0,1,6.23,5.4L194,293.92A6.28,6.28,0,0,1,188.62,300.15Z"
       id="path1285" />
    <path
       class="cls-5"
       d="m 299.03386,320.07 -82.80953,9.77 a 5.7926569,5.7275272 44.838038 0 1 -6.50106,-5.4 l -7.66279,-89.57 a 5.8731104,5.8070762 44.838038 0 1 5.32944,-6.24 l 83.08534,-3.95 a 5.8127703,5.7474145 44.838038 0 1 6.06117,5.41 l 7.59698,83.75 a 5.953564,5.8866252 44.838038 0 1 -5.09955,6.23 z"
       id="path1287"
       style="fill:#717171;fill-opacity:1" />
    <path
       class="cls-3"
       d="m 281.3,240.27 -59.64,3.53 a 2.31,2.31 0 0 0 -2.29,2.7 l 2.71,37 a 2.39,2.39 0 0 0 2.7,2.28 l 59.64,-5.19 a 2.41,2.41 0 0 0 2.29,-2.7 L 284,242.56 a 2.89,2.89 0 0 0 -2.7,-2.29 z"
       id="path1289" />
    <path
       class="cls-4"
       d="m 393.89461,299.5 -69.9475,7.69 a 5.7696604,5.7304066 44.902215 0 1 -6.47694,-5.41 l -6.10227,-72.11 a 5.8499339,5.810134 44.902215 0 1 5.35747,-6.23 l 69.97726,-3.33 a 5.7997629,5.7603044 44.902215 0 1 6.03694,5.41 l 6.07244,67.74 a 5.6392159,5.6008496 44.902215 0 1 -4.9174,6.24 z"
       id="path1291"
       style="fill:#6dafa7;fill-opacity:1" />
    <line
       class="cls-6"
       x1="137.91"
       y1="265.86"
       x2="139.16"
       y2="281.24"
       id="line1293" />
    <line
       class="cls-6"
       x1="131.26"
       y1="274.17"
       x2="145.81"
       y2="272.93"
       id="line1295" />
    <path
       class="cls-7"
       d="m 237.45,304.9 c -0.41,-4.16 -3.53,-7.48 -7.27,-7.06 -3.74,0.42 -6.65,4.15 -6.23,8.52 0.42,4.37 3.74,7.48 7.48,7.06 3.57,-0.62 6.23,-4.36 6.02,-8.52 z"
       id="path1297" />
    <line
       class="cls-8"
       x1="249.50999"
       y1="303.64999"
       x2="288.37"
       y2="299.70999"
       id="line1299" />
    <path
       class="cls-3"
       d="m 338,243 c -0.42,-3.95 -3.12,-6.86 -6.44,-6.86 -3.33,0.21 -5.61,3.54 -5.41,7.49 0.42,3.94 3.12,7.06 6.45,6.85 3.49,-0.23 5.77,-3.56 5.4,-7.48 z"
       id="path1301" />
    <line
       class="cls-8"
       x1="348.56"
       y1="242.35001"
       x2="382.01999"
       y2="240.27"
       id="line1303" />
    <path
       class="cls-3"
       d="m 339.83,265.21 c -0.42,-4 -3.12,-6.86 -6.44,-6.65 -3.32,0.21 -5.61,3.74 -5.41,7.69 0.42,3.95 3.33,7.06 6.45,6.65 3.32,-0.42 5.82,-3.74 5.4,-7.69 z"
       id="path1305" />
    <line
       class="cls-8"
       x1="350.22"
       y1="264.38"
       x2="383.89001"
       y2="261.67999"
       id="line1307" />
    <path
       class="cls-3"
       d="m 341.7,287.44 c -0.42,-3.94 -3.12,-6.85 -6.44,-6.65 -3.32,0.2 -5.61,3.75 -5.41,7.69 0.42,3.95 3.33,6.86 6.45,6.65 3.32,-0.41 5.61,-3.74 5.4,-7.69 z"
       id="path1309" />
    <line
       class="cls-8"
       x1="352.09"
       y1="286.41"
       x2="385.54999"
       y2="283.07999"
       id="line1311" />
    <path
       class="cls-4"
       d="M105.91,162.16l-13.51.21a2.66,2.66,0,0,1-2.5-2.29l-1-14.13a2.39,2.39,0,0,1,2.49-2.49h13.51a2.66,2.66,0,0,1,2.49,2.28l1,13.93A2.87,2.87,0,0,1,105.91,162.16Z"
       id="path1313" />
    <line
       class="cls-8"
       x1="120.45"
       y1="143.46"
       x2="167.21"
       y2="143.25"
       id="line1315" />
    <line
       class="cls-8"
       x1="121.29"
       y1="155.51"
       x2="168.04"
       y2="155.09"
       id="line1317" />
    <path
       class="cls-7"
       d="M330.14,158.83l-10.6.21a1.77,1.77,0,0,1-1.45-1.24l-1-13.51a1.42,1.42,0,0,1,1.45-1.46h10.6a1.81,1.81,0,0,1,1.46,1.25l1,13.3A1.56,1.56,0,0,1,330.14,158.83Z"
       id="path1319" />
    <line
       class="cls-8"
       x1="340.12"
       y1="142.63"
       x2="374.82"
       y2="142.63"
       id="line1321" />
    <line
       class="cls-8"
       x1="341.15"
       y1="153.22"
       x2="375.65"
       y2="152.81"
       id="line1323" />
    <line
       class="cls-8"
       x1="319.13"
       y1="170.47"
       x2="376.9"
       y2="169.02"
       id="line1325" />
    <path
       class="cls-4"
       d="M108.19,194.37l-13.51.42a2.5,2.5,0,0,1-2.49-2.29l-1-14.13a2.35,2.35,0,0,1,2.29-2.49l13.51-.42a2.66,2.66,0,0,1,2.49,2.29l1,13.92A2.56,2.56,0,0,1,108.19,194.37Z"
       id="path1327" />
    <line
       class="cls-8"
       x1="122.74"
       y1="175.25"
       x2="169.5"
       y2="174.01"
       id="line1329" />
    <line
       class="cls-8"
       x1="123.57"
       y1="187.51"
       x2="170.33"
       y2="186.06"
       id="line1331" />
    <path
       class="cls-3"
       d="M142.27,93.79l-70-2.08a4.49,4.49,0,0,1-4.36-4.16l-.83-11a4.41,4.41,0,0,1,4.57-4.78l70,2.91A4.5,4.5,0,0,1,146,78.83L146.85,89A4.54,4.54,0,0,1,142.27,93.79Z"
       id="path1333" />
    <line
       class="cls-8"
       x1="209.14"
       y1="143.03999"
       x2="275.23001"
       y2="142.83"
       id="line1335" />
    <line
       class="cls-8"
       x1="209.97"
       y1="154.67999"
       x2="276.06"
       y2="153.85001"
       id="line1337" />
    <line
       class="cls-8"
       x1="211.22"
       y1="172.97"
       x2="246.75"
       y2="172.14"
       id="line1339" />
    <path
       class="cls-1"
       d="M381.26,92.75c-.2-3.12-2.49-5.82-5.19-6-2.5-.2-4.57,2.5-4.16,5.61.21,3.33,2.5,6,5.2,6C379.6,98.57,381.47,95.87,381.26,92.75Z"
       id="path1341" />
    <path
       class="cls-1"
       d="M362.77,92.13c-.21-3.33-2.7-6-5.2-6-2.7-.21-4.57,2.49-4.36,5.82s2.7,6,5.4,6C361.1,97.94,363,95.24,362.77,92.13Z"
       id="path1343" />
    <path
       class="cls-1"
       d="M343.65,91.29c-.21-3.32-2.7-6-5.4-6.23s-4.78,2.49-4.58,5.82,2.7,6,5.41,6.23C342,97.32,343.86,94.62,343.65,91.29Z"
       id="path1345" />
  </g>
</svg>
